<?xml version="1.0" encoding="utf-8"?>
<!-- Generator: Adobe Illustrator 17.1.0, SVG Export Plug-In . SVG Version: 6.00 Build 0)  -->
<!DOCTYPE svg PUBLIC "-//W3C//DTD SVG 1.1//EN" "http://www.w3.org/Graphics/SVG/1.1/DTD/svg11.dtd">
<svg version="1.1" id="Слой_1" xmlns="http://www.w3.org/2000/svg" xmlns:xlink="http://www.w3.org/1999/xlink" x="0px" y="0px"
	 viewBox="0 0 153.3 313.7" enable-background="new 0 0 153.3 313.7" xml:space="preserve">
<g opacity="0.34">
	<path fill="#E9E1CB" d="M77.1,167.8c0.9-4,0.6-8.3,0.6-12.4c0-3.6,0.3-7.3-0.7-10.7c-0.1-0.5-1-0.4-1.1,0.1
		c-0.6,3.7-0.1,7.7,0,11.5c0,3.8-0.4,7.8,0.1,11.5C76,168.3,77,168.3,77.1,167.8L77.1,167.8z"/>
	<g>
		<path fill="#E9E1CB" d="M152.8,67.7c-3.1-0.2-6.5,0.5-8.8,3c-1.1,1.2-1.9,2.7-2.3,4.2c-0.4,1.2-0.5,1.9-0.9,2.6
			c-0.1,0.2-0.3,0.3-0.5,0.4c-0.3,0.1-0.5,0-0.7-0.1c-3.6-3.2-8.4-4-12.4-0.9c-3.1,2.4-3.8,6-4.3,9.7c-0.1,0.4-0.4,0.6-0.8,0.7
			c-0.2,0.1-0.4,0.2-0.7,0.1c-5.8-1.2-11.7,1.8-14.6,7c-2.4,4.3-2,8.7-0.5,13.1c4.4-0.4,9,0.5,12.8,2.3c3.1,1.5,5.9,3.5,8.4,5.9
			c-0.1-0.2-0.3-0.4-0.4-0.7c-3-4.2-6.5-7.6-10.1-11.2c-2.5-2.4-6.8-8.5-0.8-9.8c6.2-1.3,12.8,7.9,16.2,11.9c1.2,1.5,2.6,3,3.9,4.7
			c-5.1-12.6-10.2-28.6-3.6-29.6c5.6-0.8,8,9.4,9.2,13c1.3,3.5,2.6,7.2,3.8,11.1c-0.5-4.6-0.8-9.2-0.9-13.8c0-5.2-1.3-17.4,6.2-17.9
			c0.8-0.1,1,0.9,0.2,1.1c-6.8,1-4.3,20.5-3.9,25.3c0.6,7.6,1.8,14.8,2.7,22.4c0.4-0.1,1.2-0.3,2-0.1c0.3,0.1,0.7,1.6,0.5,1.6
			c-4.2-0.2-7.2,1.7-9.1,2.8c-1.8,1.1-3.7,2.7-5,3.9c1,1.9,1.9,3.9,2.8,5.8c2.4-2.3,7.4-5.1,10.9-4.7c0.3,0,0.4,1.6,0,1.6
			c-3.5-0.2-5.7,1.7-7.9,3.3c-0.5,0.3-1.2,0.9-2.2,1.7c2.5,6.1,4.3,12.6,5.5,19.1c0.5,3.1,1.1,6.1,1.3,9.2c0.1,1.6-0.3,6.6,1.8,7.7
			c0.4,0.2,0.9,0.2,1.5-0.1c0.1-0.1-0.8,1.1-0.9,1.5c-0.6,7.7-5.4,13.3-7.5,20.5c-1.4,4.9-0.3,10.1,1.7,14.6c1.4,3,3.4,5.7,4.9,8.7
			c0.5,1.1,0.9,1.5,1.1,1.8c0,0,0.1,0.1,0.1,0.1c0,0,0.1,0.3,0.1,0.3c-0.5-0.1-1.1,0-1.6,0.5c-0.9,0.8-1.2,1.7-1.4,2.3
			c-0.4,1.3-0.1,2.4,0,3.8c0,0,0,0,0,0c1-0.3,3.5-0.6,4.5-0.2c0.3,0.1-0.8,1.3-1.1,1.4c-11.8,1.2-11.1,15.7-8.3,23.3
			c0.4,1.1-1.8,1.3-2.1,0.4c-2.3-5.9-2.9-13.7,0.4-19.3c1.1-1.9,3.1-4,5.3-5.1c-2.1,0-9.5-1.9-13.1-4.5c-3.1-2.3-7.4-6.7-7.7-10.7
			c0-0.4,3.8-0.7,5.2-0.6c3,0.2,5.9,1.3,8.7,2.3c2,0.8,4.4,1.6,6.4,2.8c-3.8-5.4-6.3-12.6-5.8-18.8c0.4-4.3,2.6-7.8,4.5-11.7
			c1.9-4,2.9-8.1,4-12.3c-1.5-0.9-2-2.6-2.4-4.6c-0.1-0.7-0.3-1.5-0.4-2.2c-2.3-2.1-9.9-12.3-17.4-14.8c-4.8-1.6-9.5-1.2-13.5,1.9
			c-1.9,1.4-3.4,3-5.6,3.9c-0.4,0.2-1.5,0.1-1.7-0.5c-2-9.6,7.4-15.3,15.9-14.1c8.3,1.1,15.8,7.9,20.8,15.3
			c-0.5-2.3-0.9-4.6-1.5-6.8c-3-11.7-7.5-23.2-15.4-32.6c-7.7-9.2-25.5-17.4-33.8-4c-3.1,5.1-3,12.2,0.7,17
			c3.7,4.8,11.2,5.1,14.5-0.2c2.1-3.4,1.7-7.6-0.3-11c-0.4-0.6,0.8-0.8,1.1-0.4c7.2,8.6-2.3,20.3-12.4,16.1
			c-8.8-3.6-10.3-16.4-5.1-23.4c1.4-1.9,3.1-3.3,5-4.4c-0.1,0-0.1,0-0.2,0c-14.4-2.9-22.2-19.4-17.4-32.7c2-5.6,6.1-10.7,11.4-13.5
			c0.3-0.2,0.6-0.3,0.9-0.4c1.5-13.6,15.7-23.6,25.9-30.8c5.9-4.2,12-8.3,17.7-12.9c3-2.4,5.8-5.1,8.1-8.3c2.4-3.3,4.7-7.8,6.7-11.3
			c0.2-0.3,0.4,0.6,0.4,1.1c-1.4,9.9-10.6,17.5-18.2,23.1c-10.6,8-22.7,14.9-31.2,25.2c-2.6,3.1-4.9,6.5-6,10.5
			c-0.2,0.7-0.4,1.5-0.5,2.3c3.2-0.7,6.6-0.4,8.6,2.6c5.1,7.9-10.9,12.4-11.5,1.8c0-0.2,0-0.4,0-0.6c-0.8,0.5-1.7,1.1-2.4,1.8
			c-2.8,2.3-5,5.3-6.4,8.6c-6.2,13.7,2.2,26.6,14.9,31.9c0,0,0.1,0,0.1,0.1c-3.8-7.5-2.5-16.7,2.7-23.4c3.3-4.2,10.7-8.3,16.3-6.2
			c0.9-8.6,9.6-14,17.4-11.8c-1-1.2-1.9-2.5-2.6-3.9c-2-1.9-3.7-4.1-6.3-5.4c-4.5-2.1-9.1-1.8-13.4,0.7c-0.6,0.3-2.4,0.4-2.3-0.7
			c0.7-5.8,6.1-9.1,11.7-8.3c3.3,0.4,6.1,2.2,8.2,4.6c0.1-2.3,0.5-4.6,1.4-6.7c2-4.7,5.9-8,9.4-11.5c4.2-4.3,7.2-9.6,9.6-15.5
			c0.2-0.4,0.5,1.2,0.5,1.7c0.1,1.1-0.2,1.8-0.4,2.8c0,4.7-3.5,9.6-4.9,13.9c-2.5,7.9-0.2,15,4.8,21.3c0.1,0.1,0.4,0.4,0.4,0.5
			c0.2,0.1,0.3,0.6,0,0.6c-2,0-5.3,0.6-7.7,2.1c-2.4,1.6-3.3,3.5-4.7,5.9c-0.2,0.3-0.7,0.4-1.1,0.3c0,0,0,0,0,0
			c-8.9-3.2-16.8,1-18.8,10.3c0,0.1-0.1,0.2-0.2,0.2c-0.1,0.1-0.2,0.1-0.3,0.1c-0.1,0-0.3,0-0.4,0c-7-0.6-12.7,2.2-16.3,8.4
			c-3.9,6.8-3.4,13.1-0.9,20c1-0.3,2-0.6,3-0.8c-2.6-5.8-1.2-12.9,3.2-17.5c3.3-3.4,8.6-5.9,13.3-4.4c0.3-5.1,2.8-10.1,7.8-12
			c3.6-1.3,7.6-0.6,10.6,1.7c0.1-2.4,2.5-5.6,3.9-6.7c2.3-1.9,7.1-3.9,10.1-2.9C153.5,66.2,153.3,67.7,152.8,67.7z M138.2,67.4
			c1.5-3.7,6.6-6.7,10.7-7c-3.6-5-6.2-10.6-5.3-16.9c0.5-3.3,1.9-6.4,3.1-9.5c0.1-0.2,0.2-0.4,0.2-0.6c-2.5,3-5.6,5.7-8,8.3
			C131.9,49.5,131.7,59.2,138.2,67.4z M131,58c0-0.1,0-0.2-0.1-0.3c-1.3-2.1-3-4-5.4-5.1c-4.4-2.2-9.7-0.9-11.5,3.5
			C119.6,54.1,126.4,54.4,131,58z M95.4,65c0,0.4,0,0.9,0,1.3c0.1,3,5,7.6,6.9,3C103.8,65.5,98.4,64.1,95.4,65z M148.6,221.3
			c-6-3.8-12.9-6.4-20-6.8c1.9,3.2,4.2,5.6,6.9,7.8c3.3,2.6,7.2,3.6,11,4.9c-0.3-1.4,0.1-3.1,0.8-4.3
			C147.6,222.4,148,221.8,148.6,221.3z M144,162.2c-3.2-4.5-6.6-8.7-11.4-12.1c-4.3-3.1-9.6-5.1-14.8-3.5c-4.7,1.5-7.7,5.6-7.3,10.5
			c3.2-1.7,5.4-4.8,9-5.9c3.5-1,7.2-0.7,10.6,0.4C135.6,153.3,140.4,157.4,144,162.2z M136.3,104.2c2.3,6.8,5.4,13.3,7.9,20
			c1.2-0.6,2.5-1.1,3.8-1.5c-2.9-7-4-15.1-6.3-22.3c-1.1-3.5-2.3-6.9-3.7-10.3c-0.5-1.3-2.2-6.2-3.5-6.6
			C128.7,81.9,135.6,102.1,136.3,104.2z M129,113.5c3.3,4.4,8.3,15.1,8.3,15.2c1.2-1.4,3.1-2.6,4.7-3.5c-2.6-5.7-5.7-11.1-9.7-16
			c-2.4-3-6.3-8.5-11.6-11.9c-2.5-1.6-5.4-1.2-4.3,2.2c0.8,2.5,4.4,4.8,6.3,6.6C124.9,108.5,127.1,110.9,129,113.5z M99.3,109.4
			C99.3,109.4,99.3,109.4,99.3,109.4C99.3,109.4,99.3,109.4,99.3,109.4C99.3,109.4,99.3,109.4,99.3,109.4z"/>
		<path fill="#E9E1CB" d="M129.4,178.8c-0.3-2.5,1.5-4.4,4-4.8c1.9-0.2,4.6,1,5.3,2.5c1.1,2.5-0.5,5.3-3.1,5.9
			C133,183.1,129.8,181.7,129.4,178.8z M131.9,178.9c0.4,1.3,1.8,2.5,3.1,1.8c1.2-0.6,1.7-2.3,1.2-3.5c-0.6-1.4-2-2.1-3.6-1.4
			C131.6,176.3,131.6,177.9,131.9,178.9z"/>
		<path fill="#E9E1CB" d="M151.2,189.2c-6,4.7-4.2,18.5,0,24.9c0.2,0.3,0.1-1.2,0-1.6c-1.4-4.3-2.5-8.2-2.7-12.3
			c-0.1-4,1.3-6.7,2.9-10.2C151.5,189.8,151.3,189.1,151.2,189.2z"/>
	</g>
	<g>
		<path fill="#E9E1CB" d="M0.3,65.9c3.3-0.7,7.3,1.1,9.6,3c1.4,1.1,3.7,4.3,3.9,6.7c3-2.3,7-3,10.6-1.7c5.1,1.9,7.5,6.9,7.8,12
			c4.7-1.4,10,1.1,13.3,4.4c4.4,4.5,5.9,11.7,3.2,17.5c1,0.2,2,0.4,3,0.8c2.5-7,3-13.2-0.9-20c-3.6-6.2-9.3-8.9-16.3-8.4
			c-0.1,0-0.3,0-0.4,0c-0.1,0-0.3-0.1-0.3-0.1c-0.1-0.1-0.1-0.1-0.2-0.2c-1.9-9.3-9.8-13.6-18.8-10.3c0,0,0,0,0,0
			c-0.4,0.1-1,0-1.1-0.3C12.3,67,11.4,65,9,63.4c-2.3-1.6-5.2-2.1-7.8-2.2c-0.3,0,0.3-0.7,0.5-0.8c0-0.1,0.1-0.2,0.2-0.4
			c5-6.3,7.2-13.3,4.7-21.2C5.2,34.7,1.7,29.7,1.6,25c-0.2-1-0.1-2-0.1-3.1c0-0.6,0-1.1,0.1-1.3c0.1-0.2,0.2-0.1,0.3,0.1
			c2.3,6,5.2,11,9.5,15.3c3.5,3.5,7.4,6.9,9.4,11.5c0.9,2.1,1.4,4.4,1.4,6.7c2.1-2.4,5-4.2,8.2-4.6c5.6-0.7,11,2.5,11.7,8.3
			c0.1,1.1-1.7,1-2.3,0.7c-4.2-2.5-8.9-2.8-13.4-0.7c-2.6,1.2-4.2,3.5-6.3,5.4c-0.7,1.4-1.5,2.7-2.6,3.9C25.5,65,34.1,70.4,35.1,79
			c5.6-2.1,13,2,16.3,6.2c5.2,6.7,6.5,15.9,2.7,23.4c0,0,0.1,0,0.1-0.1c12.8-5.3,21.1-18.2,14.9-31.9c-1.5-3.3-3.7-6.3-6.4-8.6
			c-0.7-0.6-1.5-1.2-2.4-1.8c0,0.2,0,0.4,0,0.6c-0.6,10.6-16.6,6-11.5-1.8c2-3,5.4-3.4,8.6-2.6c-0.1-0.8-0.3-1.6-0.5-2.3
			c-1.1-4-3.4-7.4-6-10.5c-8.5-10.3-20.6-17.3-31.2-25.2C12,18.7,2.9,11,1.5,1C1.4,0.5,1.8-0.2,2,0.1c2,3.6,4,8.1,6.4,11.5
			c2.3,3.1,5.1,5.8,8.1,8.3c5.6,4.6,11.7,8.7,17.7,12.9c10.2,7.2,24.5,17.2,25.9,30.8c0.3,0.1,0.6,0.3,0.9,0.4
			c5.3,2.8,9.4,7.9,11.4,13.5c4.8,13.3-3,29.8-17.4,32.7c-0.1,0-0.1,0-0.2,0c1.9,1.1,3.6,2.5,5,4.4c5.2,7.1,3.7,19.8-5.1,23.4
			c-10.1,4.2-19.5-7.6-12.4-16.1c0.3-0.4,1.5-0.2,1.1,0.4c-2,3.4-2.4,7.6-0.3,11c3.4,5.3,10.8,5,14.5,0.2c3.7-4.8,3.8-11.9,0.7-17
			c-8.3-13.5-26.1-5.2-33.8,4c-7.9,9.4-12.4,20.9-15.4,32.6c-0.6,2.3-1.1,4.6-1.5,6.8c4.9-7.4,12.5-14.2,20.8-15.3
			c8.5-1.2,17.9,4.5,15.9,14.1c-0.1,0.6-1.2,0.7-1.7,0.5c-2.2-0.9-3.7-2.4-5.6-3.9c-4.1-3.1-8.8-3.5-13.5-1.9
			c-7.5,2.6-15.1,12.7-17.4,14.8c-0.1,0.7-0.3,1.5-0.4,2.2c-0.4,2-0.8,3.7-2.4,4.6c1.1,4.2,2.1,8.4,4,12.3c1.9,3.8,4.1,7.3,4.5,11.7
			c0.5,6.1-2,13.4-5.8,18.8c2-1.2,4.3-2,6.4-2.8c2.8-1.1,5.7-2.1,8.7-2.3c1.4-0.1,5.2,0.2,5.2,0.6c-0.3,4-4.6,8.5-7.7,10.7
			c-3.6,2.6-11.1,4.4-13.1,4.5c2.2,1,4.1,3.2,5.3,5.1c3.4,5.6,2.8,13.5,0.4,19.3c-0.4,0.9-2.5,0.7-2.1-0.4
			c2.8-7.6,1.4-23.7-8.2-23.3c-0.3,0-0.7-1.3-0.3-1.4c1.3-0.3,2.7,0,3.7,0.2c0,0,0,0,0,0c0.1-1.3,0.4-2.4,0-3.8
			c-0.2-0.6-0.6-1.5-1.4-2.3c-0.6-0.6-1.5-0.7-1.5-0.7c0,0,0.1-0.1,0.1-0.1c0-0.2,0.5-0.8,1-1.9c1.4-3,3.5-5.6,4.9-8.7
			c2-4.5,3.1-9.7,1.7-14.6c-2-7.2-7.1-12.7-7.7-20.4c-0.1-0.4-0.1-0.8-0.1-0.9c0-0.4,0.4-0.3,0.8-0.5c2.1-1,1.9-6,2-7.7
			c0.3-3.1,0.8-6.2,1.3-9.2c1.2-6.5,3-13,5.5-19.1c-1-0.8-1.7-1.4-2.2-1.7c-2.2-1.6-4.8-3.4-7.7-3.4c-0.5,0-0.2-1.4,0.1-1.5
			c3.3-0.3,8.1,2.4,10.5,4.7c0.8-1.9,1.8-3.9,2.8-5.8c-1.3-1.2-3.5-2.9-5.3-4c-2.1-1.3-5.1-2.8-8.5-2.8c-0.3,0-0.3-1.4,0.1-1.5
			c0.7-0.1,1.6,0,2,0.1c0.9-7.6,2.1-14.8,2.7-22.4C6.1,95,8.5,74.5,1.6,74.6c-1,0-1-0.7-0.7-0.9C1,73.5,1.7,73.5,2,73.5
			C9.4,74,8.2,86.2,8.1,91.4c0,4.6-0.4,9.2-0.9,13.8c1.2-3.9,2.6-7.6,3.8-11.1c1.3-3.5,3.7-13.8,9.2-13c6.6,1,1.5,17-3.6,29.6
			c1.3-1.7,2.7-3.3,3.9-4.7c3.4-4,10-13.2,16.2-11.9c6,1.2,1.7,7.3-0.8,9.8c-3.6,3.6-7.1,7.1-10.1,11.2c-0.2,0.2-0.3,0.4-0.4,0.7
			c2.5-2.4,5.3-4.4,8.4-5.9c3.8-1.8,8.4-2.7,12.8-2.3c1.5-4.4,1.9-8.8-0.5-13.1c-2.9-5.2-8.8-8.3-14.6-7c-0.2,0.1-0.5,0-0.7-0.1
			c-0.4-0.1-0.7-0.3-0.8-0.7c-0.6-3.7-1.3-7.3-4.3-9.7c-4-3.1-8.8-2.2-12.4,0.9c-0.2,0.1-0.4,0.2-0.7,0.1c-0.2,0-0.4-0.2-0.5-0.4
			c-0.5-0.7-0.6-1.4-0.9-2.6c-0.4-1.6-1.2-3-2.3-4.2c-2.3-2.5-5.4-3.4-8.5-2.9C-0.1,67.9-0.1,66,0.3,65.9z M14,41.6
			c-2.3-2.6-5.4-5.3-8-8.3c0.1,0.2,0.1,0.4,0.2,0.6C7.6,37,9,40.1,9.4,43.4c0.9,6.3-1.7,11.9-5.3,16.9c4.1,0.4,9.1,3.3,10.7,7
			C21.2,59.2,21,49.5,14,41.6z M38.9,56c-1.9-4.4-7.1-5.7-11.5-3.5c-2.4,1.2-4,3-5.4,5.1c0,0.1,0,0.2-0.1,0.3
			C26.5,54.4,33.3,54.1,38.9,56z M50.7,69.3c1.9,4.7,6.8-0.1,6.9-3c0-0.4,0-0.9,0-1.3C54.5,64.1,49.2,65.5,50.7,69.3z M5.6,222.9
			c0.7,1.2,1.1,2.9,0.8,4.3c3.8-1.3,7.8-2.3,11-4.9c2.7-2.1,5.1-4.6,6.9-7.8c-7.1,0.4-14,2.9-20,6.8C4.9,221.8,5.3,222.4,5.6,222.9z
			 M22.8,151.6c3.4-1.1,7.2-1.4,10.6-0.4c3.6,1.1,5.9,4.2,9,5.9c0.4-4.8-2.6-9-7.3-10.5c-5.2-1.7-10.6,0.4-14.8,3.5
			c-4.7,3.4-8.2,7.6-11.4,12.1C12.5,157.4,17.3,153.3,22.8,151.6z M18.5,83.6c-1.3,0.4-3,5.3-3.5,6.6c-1.4,3.4-2.6,6.8-3.7,10.3
			c-2.3,7.2-3.7,15.2-6.2,22.2c1.3,0.4,2.5,0.9,3.7,1.5c2.5-6.7,5.6-13.3,7.9-20C17.3,102.1,24.3,81.9,18.5,83.6z M30.3,106.2
			c1.8-1.9,5.4-4.1,6.3-6.6c1.1-3.4-1.8-3.9-4.3-2.2c-5.3,3.4-9.2,8.9-11.6,11.9c-4,4.9-7.1,10.3-9.7,16c1.6,0.9,3.6,2.1,4.7,3.5
			c0.1-0.1,5.1-10.8,8.3-15.2C25.9,110.9,28,108.5,30.3,106.2z M53.6,109.4C53.6,109.4,53.6,109.4,53.6,109.4
			C53.6,109.4,53.6,109.4,53.6,109.4C53.6,109.4,53.6,109.4,53.6,109.4z"/>
		<path fill="#E9E1CB" d="M17.3,182.5c-2.5-0.6-4.2-3.5-3.1-5.9c0.7-1.5,3.4-2.8,5.3-2.5c2.5,0.3,4.3,2.3,4,4.8
			C23.1,181.7,19.9,183.1,17.3,182.5z M20.3,175.8c-1.5-0.7-3,0-3.6,1.4c-0.5,1.2,0,2.9,1.2,3.5c1.4,0.7,2.8-0.5,3.1-1.8
			C21.3,177.9,21.3,176.3,20.3,175.8z"/>
		<path fill="#E9E1CB" d="M1.7,189.2c6,4.7,4.2,19,0,24.9c-0.2,0.3-0.1-1.2,0.1-1.6c1.4-4.3,2.5-8.2,2.7-12.3
			c0.1-4-1.3-6.7-2.9-10.2C1.5,189.8,1.6,189.1,1.7,189.2z"/>
		<path fill="#E9E1CB" d="M125.3,244.1c-0.6-4-3.3-7.5-7.3-8.5c-7.4-1.9-13.5,7.5-7.7,13.1c0.5,0.5,2.7,0.4,2.1-0.6
			c-1.2-2.1-2.1-4.2-1.3-6.7c1.9-5.5,10-3.2,11.3,1.7c1.4,5.2-2.1,9.8-5.4,13.4c-6.3,7-13.7,13-20.5,19.5
			c-7.8,7.5-17.9,16.6-20.1,29.5c-2.2-13-12.2-22.1-20-29.5c-6.8-6.5-14.2-12.4-20.5-19.5c-3.3-3.7-6.8-8.2-5.4-13.4
			c1.3-4.8,9.4-7.2,11.3-1.7c0.9,2.5-0.1,4.6-1.3,6.7c-0.6,1,1.6,1,2.1,0.6c5.7-5.5-0.3-14.9-7.7-13.1c-4,1-6.8,4.5-7.3,8.5
			c-0.7,4.7,2.1,8.8,5,12.2c8.8,10.3,20.4,17.7,29.3,27.8c3.6,4,7.1,8.2,9.5,13.1c2.5,5,3.2,10.1,4.1,15.8c0.1,0.3,0.3,0.7,0.8,0.7
			c0.6,0,0.9-0.2,0.9-0.6c0.9-5.7,1.7-10.9,4.2-15.8c2.4-4.8,6-9,9.5-13.1c8.9-10.2,20.5-17.6,29.3-27.8
			C123.2,253,126,248.8,125.3,244.1z"/>
		<path fill="#E9E1CB" d="M76.6,128.4c-0.1,0.1-0.2,0.1-0.3,0c-6.7-6.3-7.7-20.4,0.1-25.2c0,0,0,0,0.1,0
			C84.3,108,83.3,122.1,76.6,128.4z M73.1,114.9c0,4.7,2.3,7.4,3.3,11.5c1.1-4.1,3.4-6.8,3.3-11.5c0-4.6-2.6-8.7-3.4-9.7
			c0,0,0,0,0,0C75.7,106.2,73.2,110.3,73.1,114.9z"/>
		<path fill="#E9E1CB" d="M118.3,205.4c-2,6.4-5.3,13.1-9.6,18.2c-2.1,2.5-5.1,4.7-8.3,5.6c0,0.2-0.1,0.3-0.1,0.5
			c-1.5,6.2-5.4,12.3-9,17.5c-3.7,5.3-7.3,11-12.8,14.6c4.9,5.6,4.2,16.5-1.9,21.2c0,0,0,0-0.1,0c0,0,0,0,0,0c0,0,0,0,0,0
			c0,0,0,0-0.1,0c-6.1-4.7-6.7-15.6-1.9-21.2c-5.5-3.5-9.1-9.2-12.8-14.6c-3.6-5.2-7.6-11.2-9-17.5c0-0.2-0.1-0.3-0.1-0.5
			c-3.2-0.9-6.2-3.1-8.3-5.6c-4.4-5.1-7.6-11.8-9.6-18.2c-1.8-5.5-3.6-12.9-1.9-18.6c2.5-8.3,15.9-11.5,22-5.7
			c-2.2-7.4,1.2-17.2,4.7-23.3c2.4-4.2,5.5-7.8,8.5-11.6c3.5-4.5,8.3-15.1,8.5-15.5c0-0.1,0.2-0.1,0.2,0c0.1,0.2,5,11,8.5,15.5
			c2.9,3.8,6.1,7.4,8.5,11.6c3.5,6.1,6.8,15.9,4.7,23.3c6.1-5.8,19.5-2.6,22,5.7C121.9,192.5,120.1,199.9,118.3,205.4z M57.6,177.7
			c1.4-2.4,3.2-4.6,5.3-6.2c1.1-0.9,2.5-1.8,4.1-2.5c-0.3-0.9-0.6-1.8-0.8-2.7c-0.3-1.3-0.6-2.6-0.2-3.9c0.1-0.3,0.6-0.2,0.7,0
			c0.7,1.3,0.8,2.7,1.1,4.1c0.1,0.6,0.4,1.2,0.5,1.8c2.7-1.1,5.9-1.7,8.1-1.5c2.3-0.2,5.4,0.4,8.1,1.5c0.2-0.6,0.4-1.2,0.5-1.8
			c0.3-1.4,0.4-2.9,1.1-4.1c0.1-0.2,0.6-0.3,0.7,0c0.4,1.3,0.1,2.6-0.2,3.9c-0.2,0.9-0.4,1.8-0.8,2.7c1.5,0.7,2.9,1.6,4.1,2.5
			c2.1,1.6,3.9,3.7,5.3,6.2c0.8-3.1,0.8-6.3,0-9.7c-1.3-5.1-3.8-9.7-6.8-13.9c-3.5-4.9-10.2-11.3-12-17.9c-1.8,6.6-8.4,13-11.9,17.9
			c-3,4.2-5.5,8.9-6.8,13.9C56.8,171.4,57.5,174.5,57.6,177.7z M94.7,183.8c-1.3-3.6-2.5-6.9-5.4-9.8c-1.8-1.8-4.4-3.4-7.1-4.4
			c-1.9-0.8-4.1-1-5.8-1.1c-1.7,0.1-3.9,0.4-5.8,1.1c-2.7,1.1-5.3,2.6-7.1,4.4c-2.9,2.9-4,6.2-5.4,9.8c5.7-1.4,12.7-2.6,18.2-2.6
			c0,0,0,0,0.1,0c0,0,0,0,0.1,0C82,181.2,89,182.4,94.7,183.8z M34.7,193.5c5-4,13.5-7.2,20.5-8.8c-3.4-6.5-12.2-5.8-17.2-1.2
			C35.2,186,34.6,189.8,34.7,193.5z M54.5,227.8c3.8-0.4,5.5-1.2,5.8-3.5c0.3-1.9-2.5-4.3-5-1.6C53.7,224.2,54.3,226.5,54.5,227.8z
			 M76.5,261.7c-1.7,3.1-3,6.6-2.9,10.3c0.1,4.2,1.3,6.8,2.9,9.4c1.6-2.6,2.8-5.2,2.9-9.4C79.5,268.3,78.2,264.7,76.5,261.7z
			 M97.7,222.7c-2.5-2.6-5.3-0.3-5,1.6c0.3,2.3,2,3.1,5.8,3.5C98.7,226.5,99.2,224.2,97.7,222.7z M117.3,201.4
			c-4-3.2-8.1-4.5-12.1-4.1c1.3,1.7,2.1,3.7,1.4,5.8c-0.7,2.3-3.6,4.2-5.9,4.2c-5.5-0.1-4.4-7.1-0.8-10c0.4-0.3,0.8-0.7,1.3-0.9
			c-5.1-5-15.9-5.8-22.7-6.3c7.4,7.7,8.5,25.1-1.1,31.8c-0.6,0.4-0.9,0.7-1.9,0c-9.3-7.1-8.4-24.1-1.1-31.8
			c-6.8,0.4-17.6,1.2-22.7,6.3c0.5,0.3,0.9,0.6,1.3,0.9c3.6,2.9,4.7,9.9-0.8,10c-2.4,0.1-5.2-1.9-5.9-4.2c-0.7-2,0.2-4.1,1.4-5.8
			c-4-0.4-8.1,0.9-12.1,4.1c1.7,7.8,5.7,16.3,10.9,21.9c1.5,1.6,3.5,3.4,5.7,4.1c-0.3-3.3,0.6-6.7,4.2-7.6c2.5-0.6,5.3,0.5,5.7,3.3
			c0.6,3.7-2.8,6.1-6,6.3c-0.4,0-0.9,0-1.3,0c0.9,3.7,3.1,7.4,4.9,10.6c4.6,8.3,10.4,14,16.7,20.9c0,0,0,0,0,0c0,0,0,0,0,0
			c6.3-6.9,12-12.6,16.7-20.9c1.8-3.2,4-6.9,4.9-10.6c-0.4,0-0.8,0-1.3,0c-3.2-0.3-6.6-2.6-6-6.3c0.4-2.8,3.2-3.9,5.7-3.3
			c3.6,0.9,4.5,4.3,4.2,7.6c2.2-0.7,4.2-2.5,5.7-4.1C111.6,217.7,115.6,209.2,117.3,201.4z M49.7,203.9c1,1.4,3.3,2.2,3.8-0.5
			c0.4-2.5-2.3-5.1-3.2-5.6C49.6,198.6,47.7,201.3,49.7,203.9z M70.9,207.5c0.2,5.5,2.6,9.1,5.6,13.1c3-4,5.4-7.6,5.6-13.1
			c0.2-6.5-2-11.6-5.5-17.4c0,0,0,0,0-0.1c0,0,0,0.1,0,0.1C72.9,195.9,70.7,201,70.9,207.5z M99.5,203.4c0.4,2.7,2.7,1.9,3.8,0.5
			c2-2.6,0.1-5.3-0.6-6.1C101.8,198.3,99.1,200.9,99.5,203.4z M118.1,196.1c-4.7-4-12.2-6.9-19.4-8.9c-7.8-2.2-15-3.3-22.3-4.1
			c-7.3,0.8-14.5,1.9-22.3,4.1c-7.1,2-14.7,4.9-19.4,8.9c0,0.5,0.1,1,0.1,1.5c0.1,0.7,0.2,1.3,0.3,2c3.5-3,9.6-5.2,14.2-4
			c0.1-0.1,0.1-0.1,0.2-0.2c6.4-5.8,18.6-7,26.7-6.8c0.1,0,0.1,0,0.1,0c0,0,0.1,0,0.1,0c8.1-0.2,20.4,1,26.7,6.8
			c0.1,0.1,0.1,0.1,0.2,0.2c4.7-1.1,10.7,1,14.2,4c0.1-0.7,0.2-1.3,0.3-2C118,197,118.1,196.6,118.1,196.1z M118.3,193.5
			c0.1-3.7-0.5-7.5-3.3-10c-5-4.6-13.8-5.3-17.2,1.2C104.8,186.3,113.3,189.5,118.3,193.5z"/>
	</g>
</g>
</svg>
