<?xml version="1.0" encoding="utf-8"?>
<svg version="1.1" id="Слой_1" xmlns="http://www.w3.org/2000/svg" xmlns:xlink="http://www.w3.org/1999/xlink" x="0px" y="0px"
	 viewBox="0 0 276 276" style="enable-background:new 0 0 276 276;" xml:space="preserve">
<g>
	<path class="st0" d="M138,276C61.9,276,0,214.1,0,138C0,61.9,61.9,0,138,0c76.1,0,138,61.9,138,138C276,214.1,214.1,276,138,276z
		 M138,6C65.2,6,6,65.2,6,138c0,72.8,59.2,132,132,132s132-59.2,132-132C270,65.2,210.8,6,138,6z"/>
	<g>
		<path class="st0" d="M180.7,154.2V80.9c0-5-4.1-9.2-9.2-9.2h-122c-5,0-9.2,4.1-9.2,9.2v73.2c0,5,4.1,9.2,9.2,9.2h122
			C176.6,163.3,180.7,159.2,180.7,154.2L180.7,154.2z M46.5,154.2V80.9c0-1.7,1.4-3,3-3h122c1.7,0,3.1,1.4,3.1,3v73.2
			c0,1.7-1.4,3-3.1,3h-122C47.9,157.2,46.5,155.8,46.5,154.2L46.5,154.2z M46.5,154.2"/>
		<path class="st0" d="M226.5,114.5h-36.6c-1.7,0-3.1,1.4-3.1,3c0,1.7,1.4,3,3.1,3h36.6c1.7,0,3.1,1.4,3.1,3.1v15.3h-39.7
			c-1.7,0-3.1,1.4-3.1,3c0,1.7,1.4,3.1,3.1,3.1h39.7v51.9c0,1.7-1.4,3.1-3.1,3.1h-122c-1.7,0-3-1.4-3-3.1v-24.4c0-1.7-1.4-3-3-3
			c-1.7,0-3.1,1.4-3.1,3v24.4c0,5,4.1,9.2,9.2,9.2h122c5,0,9.2-4.1,9.2-9.2v-73.2C235.6,118.6,231.5,114.5,226.5,114.5L226.5,114.5z
			 M226.5,114.5"/>
		<path class="st0" d="M104.4,135.9H89.2c-1.7,0-3,1.4-3,3.1s1.4,3,3,3h15.3c1.7,0,3.1-1.4,3.1-3S106.1,135.9,104.4,135.9
			L104.4,135.9z M104.4,135.9"/>
		<path class="st0" d="M77,135.9H61.7c-1.7,0-3.1,1.4-3.1,3.1s1.4,3,3.1,3H77c1.7,0,3-1.4,3-3S78.7,135.9,77,135.9L77,135.9z
			 M77,135.9"/>
		<path class="st0" d="M159.4,135.9h-15.3c-1.7,0-3.1,1.4-3.1,3.1s1.4,3,3.1,3h15.3c1.7,0,3-1.4,3-3S161,135.9,159.4,135.9
			L159.4,135.9z M159.4,135.9"/>
		<path class="st0" d="M131.9,135.9h-15.3c-1.7,0-3,1.4-3,3.1s1.4,3,3,3h15.3c1.7,0,3-1.4,3-3S133.6,135.9,131.9,135.9L131.9,135.9z
			 M131.9,135.9"/>
		<path class="st0" d="M73.9,87h-9.2c-5,0-9.2,4.1-9.2,9.2v3.1c0,5,4.1,9.2,9.2,9.2h9.2c5,0,9.2-4.1,9.2-9.2v-3.1
			C83.1,91.2,79,87,73.9,87L73.9,87z M77,99.3c0,1.7-1.4,3-3.1,3h-9.2c-1.7,0-3-1.4-3-3v-3.1c0-1.7,1.4-3,3-3h9.2
			c1.7,0,3.1,1.4,3.1,3V99.3z M77,99.3"/>
		<path class="st0" d="M153.3,87c-3.6,0-6.9,1.6-9.2,4.1c-2.2-2.5-5.5-4.1-9.2-4.1c-6.7,0-12.2,5.5-12.2,12.2
			c0,6.7,5.5,12.2,12.2,12.2c3.6,0,6.9-1.6,9.2-4.1c2.2,2.5,5.5,4.1,9.2,4.1c6.7,0,12.2-5.5,12.2-12.2C165.5,92.5,160,87,153.3,87
			L153.3,87z M134.9,105.4c-3.4,0-6.1-2.7-6.1-6.1c0-3.4,2.7-6.1,6.1-6.1c3.4,0,6.1,2.7,6.1,6.1C141,102.6,138.3,105.4,134.9,105.4
			L134.9,105.4z M153.3,105.4c-3.4,0-6.1-2.7-6.1-6.1c0-3.4,2.7-6.1,6.1-6.1c3.4,0,6.1,2.7,6.1,6.1
			C159.4,102.6,156.6,105.4,153.3,105.4L153.3,105.4z M153.3,105.4"/>
		<path class="st0" d="M189.9,132.8h33.6c1.7,0,3-1.4,3-3c0-1.7-1.4-3.1-3-3.1h-33.6c-1.7,0-3.1,1.4-3.1,3.1
			C186.8,131.4,188.2,132.8,189.9,132.8L189.9,132.8z M189.9,132.8"/>
		<path class="st0" d="M214.3,169.4h-58c-1.7,0-3,1.4-3,3c0,1.7,1.4,3.1,3,3.1h58c1.7,0,3-1.4,3-3.1
			C217.3,170.8,215.9,169.4,214.3,169.4L214.3,169.4z M214.3,169.4"/>
		<path class="st0" d="M214.3,181.6h-36.6c-1.7,0-3,1.4-3,3.1c0,1.7,1.4,3,3,3h36.6c1.7,0,3-1.4,3-3
			C217.3,183,215.9,181.6,214.3,181.6L214.3,181.6z M214.3,181.6"/>
	</g>
</g>
</svg>
