<?xml version="1.0" encoding="utf-8"?>
<!-- Generator: Adobe Illustrator 19.2.1, SVG Export Plug-In . SVG Version: 6.00 Build 0)  -->
<svg version="1.1" id="Слой_1" xmlns="http://www.w3.org/2000/svg" xmlns:xlink="http://www.w3.org/1999/xlink" x="0px" y="0px"
	 viewBox="0 0 276 276" style="enable-background:new 0 0 276 276;" xml:space="preserve">
<style type="text/css">
	.st1{font-family:'TrebuchetMS';}
	.st2{font-size:72.0809px;}
</style>
<path class="st0" d="M138,276C61.9,276,0,214.1,0,138C0,61.9,61.9,0,138,0s138,61.9,138,138C276,214.1,214.1,276,138,276z M138,6
	C65.2,6,6,65.2,6,138c0,72.8,59.2,132,132,132s132-59.2,132-132C270,65.2,210.8,6,138,6z"/>
<path class="st0" d="M247.2,155.7c-2.5-0.5-4.9,1.1-5.3,3.5c-9.8,48.6-53,83.9-102.7,83.9c-57.8,0-104.8-47-104.8-104.8
	s47-104.8,104.8-104.8c27.3,0,53.4,10.7,72.9,29.5h-11.7c-2.5,0-4.5,2-4.5,4.5c0,2.5,2,4.5,4.5,4.5H223c2.5,0,4.5-2,4.5-4.5V44.8
	c0-2.5-2-4.5-4.5-4.5s-4.5,2-4.5,4.5v11.9c-21.2-20.6-49.7-32.3-79.4-32.3c-30.4,0-59,11.8-80.5,33.4C37,79.3,25.2,107.9,25.2,138.4
	s11.8,59,33.4,80.5c21.5,21.5,50.1,33.4,80.5,33.4c26.4,0,52.2-9.3,72.6-26.1c20.1-16.6,34-39.7,39.1-65.1
	C251.2,158.6,249.6,156.2,247.2,155.7L247.2,155.7z"/>
<path class="st0" d="M250.9,133.8c-2.5,0-4.5,2-4.5,4.5c0,1,0,2,0,3c-0.1,2.5,1.9,4.6,4.4,4.7c0,0,0.1,0,0.1,0
	c2.4,0,4.5-1.9,4.5-4.4c0-1.1,0-2.2,0-3.3C255.4,135.8,253.4,133.8,250.9,133.8L250.9,133.8z"/>
<text transform="matrix(1 0 0 1 59.9639 161.9361)" class="st0 st1 st2" style="font-size:72.0809px;">24/7</text>
</svg>