<?xml version="1.0" encoding="utf-8"?>
<svg version="1.1" id="Слой_1" xmlns="http://www.w3.org/2000/svg" xmlns:xlink="http://www.w3.org/1999/xlink" x="0px" y="0px"
	 viewBox="0 0 276 276" xml:space="preserve">
<g>
	<path class="st0" d="M138,276C61.9,276,0,214.1,0,138C0,61.9,61.9,0,138,0s138,61.9,138,138C276,214.1,214.1,276,138,276z M138,6
		C65.2,6,6,65.2,6,138c0,72.8,59.2,132,132,132s132-59.2,132-132C270,65.2,210.8,6,138,6z"/>
	<g>
		<path class="st0" d="M200,163.3c-4.8,0-9.3,1.9-12.7,5.2c-3.4,3.4-5.3,7.9-5.3,12.6c0,4.8,1.9,9.2,5.3,12.6
			c3.5,3.4,7.9,5.2,12.7,5.2c9.8,0,17.7-8,17.7-17.9C217.7,171.3,209.8,163.3,200,163.3L200,163.3z M200,191.1
			c-5.5,0-10.1-4.5-10.1-9.9c0-5.4,4.6-9.9,10.1-9.9c5.4,0,9.8,4.5,9.8,9.9C209.8,186.6,205.4,191.1,200,191.1L200,191.1z
			 M200,191.1"/>
		<path class="st0" d="M204.6,103.7c-0.7-0.7-1.7-1-2.7-1h-20.4c-2.2,0-4,1.8-4,4v32.6c0,2.2,1.8,4,4,4h32.4c2.2,0,4-1.8,4-4v-21.8
			c0-1.1-0.5-2.2-1.3-2.9L204.6,103.7z M209.9,135.2h-24.4v-24.7h14.9l9.5,8.6V135.2z M209.9,135.2"/>
		<path class="st0" d="M102.9,163.3c-4.8,0-9.3,1.9-12.7,5.2c-3.4,3.4-5.3,7.9-5.3,12.6c0,4.8,1.9,9.2,5.3,12.6
			c3.5,3.4,7.9,5.2,12.7,5.2c9.8,0,17.7-8,17.7-17.9C120.7,171.3,112.7,163.3,102.9,163.3L102.9,163.3z M102.9,191.1
			c-5.5,0-10.1-4.5-10.1-9.9c0-5.4,4.6-9.9,10.1-9.9c5.4,0,9.8,4.5,9.8,9.9C112.7,186.6,108.3,191.1,102.9,191.1L102.9,191.1z
			 M102.9,191.1"/>
		<path class="st0" d="M76.4,168.1h-8v-10.6c0-2.2-1.8-4-4-4c-2.2,0-4,1.8-4,4v14.5c0,2.2,1.8,4,4,4h12c2.2,0,4-1.8,4-4
			C80.4,169.9,78.6,168.1,76.4,168.1L76.4,168.1z M76.4,168.1"/>
		<path class="st0" d="M96.6,146.5c0-2.2-1.8-4-4-4H44.4c-2.2,0-4,1.8-4,4c0,2.2,1.8,4,4,4h48.2C94.8,150.5,96.6,148.7,96.6,146.5
			L96.6,146.5z M96.6,146.5"/>
		<path class="st0" d="M52.5,132.1l48.2,0.3c2.2,0,4-1.8,4-3.9c0-2.2-1.7-4-3.9-4l-48.2-0.3h0c-2.2,0-4,1.7-4,3.9
			C48.5,130.4,50.3,132.1,52.5,132.1L52.5,132.1z M52.5,132.1"/>
		<path class="st0" d="M60.6,114.1h48.2c2.2,0,4-1.8,4-4c0-2.2-1.8-4-4-4H60.6c-2.2,0-4,1.8-4,4C56.6,112.3,58.4,114.1,60.6,114.1
			L60.6,114.1z M60.6,114.1"/>
		<path class="st0" d="M234.1,108.7l-28.5-23.6c-0.7-0.6-1.6-0.9-2.5-0.9h-33.5V69.9c0-2.2-1.8-4-4-4H64.5c-2.2,0-4,1.8-4,4V99
			c0,2.2,1.8,4,4,4c2.2,0,4-1.8,4-4V73.9h93.3v94.2h-32.6c-2.2,0-4,1.8-4,4c0,2.2,1.8,4,4,4h48.5c2.2,0,4-1.8,4-4c0-2.2-1.8-4-4-4
			h-8V92.2h32l25.9,21.5l-0.3,54.4h-4.1c-2.2,0-4,1.8-4,4c0,2.2,1.8,4,4,4h8.1c2.2,0,4-1.7,4-3.9l0.3-60.3
			C235.5,110.6,235,109.5,234.1,108.7L234.1,108.7z M234.1,108.7"/>
	</g>
</g>
</svg>
