<?xml version="1.0" encoding="UTF-8"?><!DOCTYPE svg PUBLIC "-//W3C//DTD SVG 1.1//EN" "http://www.w3.org/Graphics/SVG/1.1/DTD/svg11.dtd"><svg xmlns="http://www.w3.org/2000/svg"><symbol id="body_bg" viewBox="0 0 153.3 313.7"><g opacity=".34" fill="#E9E1CB"><path d="M77.1 167.8c.9-4 .6-8.3.6-12.4 0-3.6.3-7.3-.7-10.7-.1-.5-1-.4-1.1.1-.6 3.7-.1 7.7 0 11.5 0 3.8-.4 7.8.1 11.5 0 .5 1 .5 1.1 0zM152.8 67.7c-3.1-.2-6.5.5-8.8 3-1.1 1.2-1.9 2.7-2.3 4.2-.4 1.2-.5 1.9-.9 2.6-.1.2-.3.3-.5.4-.3.1-.5 0-.7-.1-3.6-3.2-8.4-4-12.4-.9-3.1 2.4-3.8 6-4.3 9.7-.1.4-.4.6-.8.7-.2.1-.4.2-.7.1-5.8-1.2-11.7 1.8-14.6 7-2.4 4.3-2 8.7-.5 13.1 4.4-.4 9 .5 12.8 2.3 3.1 1.5 5.9 3.5 8.4 5.9-.1-.2-.3-.4-.4-.7-3-4.2-6.5-7.6-10.1-11.2-2.5-2.4-6.8-8.5-.8-9.8 6.2-1.3 12.8 7.9 16.2 11.9 1.2 1.5 2.6 3 3.9 4.7C131.2 98 126.1 82 132.7 81c5.6-.8 8 9.4 9.2 13 1.3 3.5 2.6 7.2 3.8 11.1-.5-4.6-.8-9.2-.9-13.8 0-5.2-1.3-17.4 6.2-17.9.8-.1 1 .9.2 1.1-6.8 1-4.3 20.5-3.9 25.3.6 7.6 1.8 14.8 2.7 22.4.4-.1 1.2-.3 2-.1.3.1.7 1.6.5 1.6-4.2-.2-7.2 1.7-9.1 2.8-1.8 1.1-3.7 2.7-5 3.9 1 1.9 1.9 3.9 2.8 5.8 2.4-2.3 7.4-5.1 10.9-4.7.3 0 .4 1.6 0 1.6-3.5-.2-5.7 1.7-7.9 3.3-.5.3-1.2.9-2.2 1.7 2.5 6.1 4.3 12.6 5.5 19.1.5 3.1 1.1 6.1 1.3 9.2.1 1.6-.3 6.6 1.8 7.7.4.2.9.2 1.5-.1.1-.1-.8 1.1-.9 1.5-.6 7.7-5.4 13.3-7.5 20.5-1.4 4.9-.3 10.1 1.7 14.6 1.4 3 3.4 5.7 4.9 8.7.5 1.1.9 1.5 1.1 1.8l.1.1.1.3c-.5-.1-1.1 0-1.6.5-.9.8-1.2 1.7-1.4 2.3-.4 1.3-.1 2.4 0 3.8 1-.3 3.5-.6 4.5-.2.3.1-.8 1.3-1.1 1.4-11.8 1.2-11.1 15.7-8.3 23.3.4 1.1-1.8 1.3-2.1.4-2.3-5.9-2.9-13.7.4-19.3 1.1-1.9 3.1-4 5.3-5.1-2.1 0-9.5-1.9-13.1-4.5-3.1-2.3-7.4-6.7-7.7-10.7 0-.4 3.8-.7 5.2-.6 3 .2 5.9 1.3 8.7 2.3 2 .8 4.4 1.6 6.4 2.8-3.8-5.4-6.3-12.6-5.8-18.8.4-4.3 2.6-7.8 4.5-11.7 1.9-4 2.9-8.1 4-12.3-1.5-.9-2-2.6-2.4-4.6-.1-.7-.3-1.5-.4-2.2-2.3-2.1-9.9-12.3-17.4-14.8-4.8-1.6-9.5-1.2-13.5 1.9-1.9 1.4-3.4 3-5.6 3.9-.4.2-1.5.1-1.7-.5-2-9.6 7.4-15.3 15.9-14.1 8.3 1.1 15.8 7.9 20.8 15.3-.5-2.3-.9-4.6-1.5-6.8-3-11.7-7.5-23.2-15.4-32.6-7.7-9.2-25.5-17.4-33.8-4-3.1 5.1-3 12.2.7 17 3.7 4.8 11.2 5.1 14.5-.2 2.1-3.4 1.7-7.6-.3-11-.4-.6.8-.8 1.1-.4 7.2 8.6-2.3 20.3-12.4 16.1-8.8-3.6-10.3-16.4-5.1-23.4 1.4-1.9 3.1-3.3 5-4.4h-.2c-14.4-2.9-22.2-19.4-17.4-32.7 2-5.6 6.1-10.7 11.4-13.5.3-.2.6-.3.9-.4 1.5-13.6 15.7-23.6 25.9-30.8 5.9-4.2 12-8.3 17.7-12.9 3-2.4 5.8-5.1 8.1-8.3 2.4-3.3 4.7-7.8 6.7-11.3.2-.3.4.6.4 1.1-1.4 9.9-10.6 17.5-18.2 23.1-10.6 8-22.7 14.9-31.2 25.2-2.6 3.1-4.9 6.5-6 10.5-.2.7-.4 1.5-.5 2.3 3.2-.7 6.6-.4 8.6 2.6 5.1 7.9-10.9 12.4-11.5 1.8v-.6c-.8.5-1.7 1.1-2.4 1.8-2.8 2.3-5 5.3-6.4 8.6-6.2 13.7 2.2 26.6 14.9 31.9 0 0 .1 0 .1.1-3.8-7.5-2.5-16.7 2.7-23.4 3.3-4.2 10.7-8.3 16.3-6.2.9-8.6 9.6-14 17.4-11.8-1-1.2-1.9-2.5-2.6-3.9-2-1.9-3.7-4.1-6.3-5.4-4.5-2.1-9.1-1.8-13.4.7-.6.3-2.4.4-2.3-.7.7-5.8 6.1-9.1 11.7-8.3 3.3.4 6.1 2.2 8.2 4.6.1-2.3.5-4.6 1.4-6.7 2-4.7 5.9-8 9.4-11.5 4.2-4.3 7.2-9.6 9.6-15.5.2-.4.5 1.2.5 1.7.1 1.1-.2 1.8-.4 2.8 0 4.7-3.5 9.6-4.9 13.9-2.5 7.9-.2 15 4.8 21.3.1.1.4.4.4.5.2.1.3.6 0 .6-2 0-5.3.6-7.7 2.1-2.4 1.6-3.3 3.5-4.7 5.9-.2.3-.7.4-1.1.3-8.9-3.2-16.8 1-18.8 10.3 0 .1-.1.2-.2.2-.1.1-.2.1-.3.1h-.4c-7-.6-12.7 2.2-16.3 8.4-3.9 6.8-3.4 13.1-.9 20 1-.3 2-.6 3-.8-2.6-5.8-1.2-12.9 3.2-17.5 3.3-3.4 8.6-5.9 13.3-4.4.3-5.1 2.8-10.1 7.8-12 3.6-1.3 7.6-.6 10.6 1.7.1-2.4 2.5-5.6 3.9-6.7 2.3-1.9 7.1-3.9 10.1-2.9.6 0 .4 1.5-.1 1.5zm-14.6-.3c1.5-3.7 6.6-6.7 10.7-7-3.6-5-6.2-10.6-5.3-16.9.5-3.3 1.9-6.4 3.1-9.5.1-.2.2-.4.2-.6-2.5 3-5.6 5.7-8 8.3-7 7.8-7.2 17.5-.7 25.7zM131 58c0-.1 0-.2-.1-.3-1.3-2.1-3-4-5.4-5.1-4.4-2.2-9.7-.9-11.5 3.5 5.6-2 12.4-1.7 17 1.9zm-35.6 7v1.3c.1 3 5 7.6 6.9 3 1.5-3.8-3.9-5.2-6.9-4.3zm53.2 156.3c-6-3.8-12.9-6.4-20-6.8 1.9 3.2 4.2 5.6 6.9 7.8 3.3 2.6 7.2 3.6 11 4.9-.3-1.4.1-3.1.8-4.3.3-.5.7-1.1 1.3-1.6zm-4.6-59.1c-3.2-4.5-6.6-8.7-11.4-12.1-4.3-3.1-9.6-5.1-14.8-3.5-4.7 1.5-7.7 5.6-7.3 10.5 3.2-1.7 5.4-4.8 9-5.9 3.5-1 7.2-.7 10.6.4 5.5 1.7 10.3 5.8 13.9 10.6zm-7.7-58c2.3 6.8 5.4 13.3 7.9 20 1.2-.6 2.5-1.1 3.8-1.5-2.9-7-4-15.1-6.3-22.3-1.1-3.5-2.3-6.9-3.7-10.3-.5-1.3-2.2-6.2-3.5-6.6-5.8-1.6 1.1 18.6 1.8 20.7zm-7.3 9.3c3.3 4.4 8.3 15.1 8.3 15.2 1.2-1.4 3.1-2.6 4.7-3.5-2.6-5.7-5.7-11.1-9.7-16-2.4-3-6.3-8.5-11.6-11.9-2.5-1.6-5.4-1.2-4.3 2.2.8 2.5 4.4 4.8 6.3 6.6 2.2 2.4 4.4 4.8 6.3 7.4zm-29.7-4.1z"/><path d="M129.4 178.8c-.3-2.5 1.5-4.4 4-4.8 1.9-.2 4.6 1 5.3 2.5 1.1 2.5-.5 5.3-3.1 5.9-2.6.7-5.8-.7-6.2-3.6zm2.5.1c.4 1.3 1.8 2.5 3.1 1.8 1.2-.6 1.7-2.3 1.2-3.5-.6-1.4-2-2.1-3.6-1.4-1 .5-1 2.1-.7 3.1zM151.2 189.2c-6 4.7-4.2 18.5 0 24.9.2.3.1-1.2 0-1.6-1.4-4.3-2.5-8.2-2.7-12.3-.1-4 1.3-6.7 2.9-10.2.1-.2-.1-.9-.2-.8z"/><g><path d="M.3 65.9c3.3-.7 7.3 1.1 9.6 3 1.4 1.1 3.7 4.3 3.9 6.7 3-2.3 7-3 10.6-1.7 5.1 1.9 7.5 6.9 7.8 12 4.7-1.4 10 1.1 13.3 4.4 4.4 4.5 5.9 11.7 3.2 17.5 1 .2 2 .4 3 .8 2.5-7 3-13.2-.9-20-3.6-6.2-9.3-8.9-16.3-8.4h-.4c-.1 0-.3-.1-.3-.1l-.2-.2c-1.9-9.3-9.8-13.6-18.8-10.3-.4.1-1 0-1.1-.3C12.3 67 11.4 65 9 63.4c-2.3-1.6-5.2-2.1-7.8-2.2-.3 0 .3-.7.5-.8 0-.1.1-.2.2-.4 5-6.3 7.2-13.3 4.7-21.2-1.4-4.1-4.9-9.1-5-13.8-.2-1-.1-2-.1-3.1 0-.6 0-1.1.1-1.3.1-.2.2-.1.3.1 2.3 6 5.2 11 9.5 15.3 3.5 3.5 7.4 6.9 9.4 11.5.9 2.1 1.4 4.4 1.4 6.7 2.1-2.4 5-4.2 8.2-4.6 5.6-.7 11 2.5 11.7 8.3.1 1.1-1.7 1-2.3.7-4.2-2.5-8.9-2.8-13.4-.7-2.6 1.2-4.2 3.5-6.3 5.4-.7 1.4-1.5 2.7-2.6 3.9 8-2.2 16.6 3.2 17.6 11.8 5.6-2.1 13 2 16.3 6.2 5.2 6.7 6.5 15.9 2.7 23.4 0 0 .1 0 .1-.1 12.8-5.3 21.1-18.2 14.9-31.9-1.5-3.3-3.7-6.3-6.4-8.6-.7-.6-1.5-1.2-2.4-1.8v.6c-.6 10.6-16.6 6-11.5-1.8 2-3 5.4-3.4 8.6-2.6-.1-.8-.3-1.6-.5-2.3-1.1-4-3.4-7.4-6-10.5-8.5-10.3-20.6-17.3-31.2-25.2C12 18.7 2.9 11 1.5 1c-.1-.5.3-1.2.5-.9 2 3.6 4 8.1 6.4 11.5 2.3 3.1 5.1 5.8 8.1 8.3 5.6 4.6 11.7 8.7 17.7 12.9C44.4 40 58.7 50 60.1 63.6c.3.1.6.3.9.4 5.3 2.8 9.4 7.9 11.4 13.5 4.8 13.3-3 29.8-17.4 32.7h-.2c1.9 1.1 3.6 2.5 5 4.4 5.2 7.1 3.7 19.8-5.1 23.4-10.1 4.2-19.5-7.6-12.4-16.1.3-.4 1.5-.2 1.1.4-2 3.4-2.4 7.6-.3 11 3.4 5.3 10.8 5 14.5.2 3.7-4.8 3.8-11.9.7-17-8.3-13.5-26.1-5.2-33.8 4-7.9 9.4-12.4 20.9-15.4 32.6-.6 2.3-1.1 4.6-1.5 6.8 4.9-7.4 12.5-14.2 20.8-15.3 8.5-1.2 17.9 4.5 15.9 14.1-.1.6-1.2.7-1.7.5-2.2-.9-3.7-2.4-5.6-3.9-4.1-3.1-8.8-3.5-13.5-1.9C16 156 8.4 166.1 6.1 168.2c-.1.7-.3 1.5-.4 2.2-.4 2-.8 3.7-2.4 4.6 1.1 4.2 2.1 8.4 4 12.3 1.9 3.8 4.1 7.3 4.5 11.7.5 6.1-2 13.4-5.8 18.8 2-1.2 4.3-2 6.4-2.8 2.8-1.1 5.7-2.1 8.7-2.3 1.4-.1 5.2.2 5.2.6-.3 4-4.6 8.5-7.7 10.7-3.6 2.6-11.1 4.4-13.1 4.5 2.2 1 4.1 3.2 5.3 5.1 3.4 5.6 2.8 13.5.4 19.3-.4.9-2.5.7-2.1-.4 2.8-7.6 1.4-23.7-8.2-23.3-.3 0-.7-1.3-.3-1.4 1.3-.3 2.7 0 3.7.2.1-1.3.4-2.4 0-3.8-.2-.6-.6-1.5-1.4-2.3-.6-.6-1.5-.7-1.5-.7l.1-.1c0-.2.5-.8 1-1.9 1.4-3 3.5-5.6 4.9-8.7 2-4.5 3.1-9.7 1.7-14.6-2-7.2-7.1-12.7-7.7-20.4-.1-.4-.1-.8-.1-.9 0-.4.4-.3.8-.5 2.1-1 1.9-6 2-7.7.3-3.1.8-6.2 1.3-9.2 1.2-6.5 3-13 5.5-19.1-1-.8-1.7-1.4-2.2-1.7-2.2-1.6-4.8-3.4-7.7-3.4-.5 0-.2-1.4.1-1.5 3.3-.3 8.1 2.4 10.5 4.7.8-1.9 1.8-3.9 2.8-5.8-1.3-1.2-3.5-2.9-5.3-4-2.1-1.3-5.1-2.8-8.5-2.8-.3 0-.3-1.4.1-1.5.7-.1 1.6 0 2 .1.9-7.6 2.1-14.8 2.7-22.4.7-4.8 3.1-25.3-3.8-25.2-1 0-1-.7-.7-.9.1-.2.8-.2 1.1-.2 7.4.5 6.2 12.7 6.1 17.9 0 4.6-.4 9.2-.9 13.8 1.2-3.9 2.6-7.6 3.8-11.1 1.3-3.5 3.7-13.8 9.2-13 6.6 1 1.5 17-3.6 29.6 1.3-1.7 2.7-3.3 3.9-4.7 3.4-4 10-13.2 16.2-11.9 6 1.2 1.7 7.3-.8 9.8-3.6 3.6-7.1 7.1-10.1 11.2-.2.2-.3.4-.4.7 2.5-2.4 5.3-4.4 8.4-5.9 3.8-1.8 8.4-2.7 12.8-2.3 1.5-4.4 1.9-8.8-.5-13.1-2.9-5.2-8.8-8.3-14.6-7-.2.1-.5 0-.7-.1-.4-.1-.7-.3-.8-.7-.6-3.7-1.3-7.3-4.3-9.7-4-3.1-8.8-2.2-12.4.9-.2.1-.4.2-.7.1-.2 0-.4-.2-.5-.4-.5-.7-.6-1.4-.9-2.6-.4-1.6-1.2-3-2.3-4.2-2.3-2.5-5.4-3.4-8.5-2.9-.5 0-.5-1.9-.1-2zM14 41.6c-2.3-2.6-5.4-5.3-8-8.3.1.2.1.4.2.6C7.6 37 9 40.1 9.4 43.4c.9 6.3-1.7 11.9-5.3 16.9 4.1.4 9.1 3.3 10.7 7 6.4-8.1 6.2-17.8-.8-25.7zM38.9 56c-1.9-4.4-7.1-5.7-11.5-3.5-2.4 1.2-4 3-5.4 5.1 0 .1 0 .2-.1.3 4.6-3.5 11.4-3.8 17-1.9zm11.8 13.3c1.9 4.7 6.8-.1 6.9-3V65c-3.1-.9-8.4.5-6.9 4.3zM5.6 222.9c.7 1.2 1.1 2.9.8 4.3 3.8-1.3 7.8-2.3 11-4.9 2.7-2.1 5.1-4.6 6.9-7.8-7.1.4-14 2.9-20 6.8.6.5 1 1.1 1.3 1.6zm17.2-71.3c3.4-1.1 7.2-1.4 10.6-.4 3.6 1.1 5.9 4.2 9 5.9.4-4.8-2.6-9-7.3-10.5-5.2-1.7-10.6.4-14.8 3.5-4.7 3.4-8.2 7.6-11.4 12.1 3.6-4.8 8.4-8.9 13.9-10.6zm-4.3-68c-1.3.4-3 5.3-3.5 6.6-1.4 3.4-2.6 6.8-3.7 10.3-2.3 7.2-3.7 15.2-6.2 22.2 1.3.4 2.5.9 3.7 1.5 2.5-6.7 5.6-13.3 7.9-20 .6-2.1 7.6-22.3 1.8-20.6zm11.8 22.6c1.8-1.9 5.4-4.1 6.3-6.6 1.1-3.4-1.8-3.9-4.3-2.2-5.3 3.4-9.2 8.9-11.6 11.9-4 4.9-7.1 10.3-9.7 16 1.6.9 3.6 2.1 4.7 3.5.1-.1 5.1-10.8 8.3-15.2 1.9-2.7 4-5.1 6.3-7.4zm23.3 3.2z"/><path d="M17.3 182.5c-2.5-.6-4.2-3.5-3.1-5.9.7-1.5 3.4-2.8 5.3-2.5 2.5.3 4.3 2.3 4 4.8-.4 2.8-3.6 4.2-6.2 3.6zm3-6.7c-1.5-.7-3 0-3.6 1.4-.5 1.2 0 2.9 1.2 3.5 1.4.7 2.8-.5 3.1-1.8.3-1 .3-2.6-.7-3.1zM1.7 189.2c6 4.7 4.2 19 0 24.9-.2.3-.1-1.2.1-1.6 1.4-4.3 2.5-8.2 2.7-12.3.1-4-1.3-6.7-2.9-10.2-.1-.2 0-.9.1-.8zM125.3 244.1c-.6-4-3.3-7.5-7.3-8.5-7.4-1.9-13.5 7.5-7.7 13.1.5.5 2.7.4 2.1-.6-1.2-2.1-2.1-4.2-1.3-6.7 1.9-5.5 10-3.2 11.3 1.7 1.4 5.2-2.1 9.8-5.4 13.4-6.3 7-13.7 13-20.5 19.5-7.8 7.5-17.9 16.6-20.1 29.5-2.2-13-12.2-22.1-20-29.5-6.8-6.5-14.2-12.4-20.5-19.5-3.3-3.7-6.8-8.2-5.4-13.4 1.3-4.8 9.4-7.2 11.3-1.7.9 2.5-.1 4.6-1.3 6.7-.6 1 1.6 1 2.1.6 5.7-5.5-.3-14.9-7.7-13.1-4 1-6.8 4.5-7.3 8.5-.7 4.7 2.1 8.8 5 12.2 8.8 10.3 20.4 17.7 29.3 27.8 3.6 4 7.1 8.2 9.5 13.1 2.5 5 3.2 10.1 4.1 15.8.1.3.3.7.8.7.6 0 .9-.2.9-.6.9-5.7 1.7-10.9 4.2-15.8 2.4-4.8 6-9 9.5-13.1 8.9-10.2 20.5-17.6 29.3-27.8 3-3.4 5.8-7.6 5.1-12.3zM76.6 128.4c-.1.1-.2.1-.3 0-6.7-6.3-7.7-20.4.1-25.2h.1c7.8 4.8 6.8 18.9.1 25.2zm-3.5-13.5c0 4.7 2.3 7.4 3.3 11.5 1.1-4.1 3.4-6.8 3.3-11.5 0-4.6-2.6-8.7-3.4-9.7-.6 1-3.1 5.1-3.2 9.7z"/><path d="M118.3 205.4c-2 6.4-5.3 13.1-9.6 18.2-2.1 2.5-5.1 4.7-8.3 5.6 0 .2-.1.3-.1.5-1.5 6.2-5.4 12.3-9 17.5-3.7 5.3-7.3 11-12.8 14.6 4.9 5.6 4.2 16.5-1.9 21.2h-.1-.1c-6.1-4.7-6.7-15.6-1.9-21.2-5.5-3.5-9.1-9.2-12.8-14.6-3.6-5.2-7.6-11.2-9-17.5 0-.2-.1-.3-.1-.5-3.2-.9-6.2-3.1-8.3-5.6-4.4-5.1-7.6-11.8-9.6-18.2-1.8-5.5-3.6-12.9-1.9-18.6 2.5-8.3 15.9-11.5 22-5.7-2.2-7.4 1.2-17.2 4.7-23.3 2.4-4.2 5.5-7.8 8.5-11.6 3.5-4.5 8.3-15.1 8.5-15.5 0-.1.2-.1.2 0 .1.2 5 11 8.5 15.5 2.9 3.8 6.1 7.4 8.5 11.6 3.5 6.1 6.8 15.9 4.7 23.3 6.1-5.8 19.5-2.6 22 5.7 1.5 5.7-.3 13.1-2.1 18.6zm-60.7-27.7c1.4-2.4 3.2-4.6 5.3-6.2 1.1-.9 2.5-1.8 4.1-2.5-.3-.9-.6-1.8-.8-2.7-.3-1.3-.6-2.6-.2-3.9.1-.3.6-.2.7 0 .7 1.3.8 2.7 1.1 4.1.1.6.4 1.2.5 1.8 2.7-1.1 5.9-1.7 8.1-1.5 2.3-.2 5.4.4 8.1 1.5.2-.6.4-1.2.5-1.8.3-1.4.4-2.9 1.1-4.1.1-.2.6-.3.7 0 .4 1.3.1 2.6-.2 3.9-.2.9-.4 1.8-.8 2.7 1.5.7 2.9 1.6 4.1 2.5 2.1 1.6 3.9 3.7 5.3 6.2.8-3.1.8-6.3 0-9.7-1.3-5.1-3.8-9.7-6.8-13.9-3.5-4.9-10.2-11.3-12-17.9-1.8 6.6-8.4 13-11.9 17.9-3 4.2-5.5 8.9-6.8 13.9-.9 3.4-.2 6.5-.1 9.7zm37.1 6.1c-1.3-3.6-2.5-6.9-5.4-9.8-1.8-1.8-4.4-3.4-7.1-4.4-1.9-.8-4.1-1-5.8-1.1-1.7.1-3.9.4-5.8 1.1-2.7 1.1-5.3 2.6-7.1 4.4-2.9 2.9-4 6.2-5.4 9.8 5.7-1.4 12.7-2.6 18.2-2.6h.2c5.5 0 12.5 1.2 18.2 2.6zm-60 9.7c5-4 13.5-7.2 20.5-8.8-3.4-6.5-12.2-5.8-17.2-1.2-2.8 2.5-3.4 6.3-3.3 10zm19.8 34.3c3.8-.4 5.5-1.2 5.8-3.5.3-1.9-2.5-4.3-5-1.6-1.6 1.5-1 3.8-.8 5.1zm22 33.9c-1.7 3.1-3 6.6-2.9 10.3.1 4.2 1.3 6.8 2.9 9.4 1.6-2.6 2.8-5.2 2.9-9.4.1-3.7-1.2-7.3-2.9-10.3zm21.2-39c-2.5-2.6-5.3-.3-5 1.6.3 2.3 2 3.1 5.8 3.5.2-1.3.7-3.6-.8-5.1zm19.6-21.3c-4-3.2-8.1-4.5-12.1-4.1 1.3 1.7 2.1 3.7 1.4 5.8-.7 2.3-3.6 4.2-5.9 4.2-5.5-.1-4.4-7.1-.8-10 .4-.3.8-.7 1.3-.9-5.1-5-15.9-5.8-22.7-6.3 7.4 7.7 8.5 25.1-1.1 31.8-.6.4-.9.7-1.9 0-9.3-7.1-8.4-24.1-1.1-31.8-6.8.4-17.6 1.2-22.7 6.3.5.3.9.6 1.3.9 3.6 2.9 4.7 9.9-.8 10-2.4.1-5.2-1.9-5.9-4.2-.7-2 .2-4.1 1.4-5.8-4-.4-8.1.9-12.1 4.1 1.7 7.8 5.7 16.3 10.9 21.9 1.5 1.6 3.5 3.4 5.7 4.1-.3-3.3.6-6.7 4.2-7.6 2.5-.6 5.3.5 5.7 3.3.6 3.7-2.8 6.1-6 6.3h-1.3c.9 3.7 3.1 7.4 4.9 10.6 4.6 8.3 10.4 14 16.7 20.9 6.3-6.9 12-12.6 16.7-20.9 1.8-3.2 4-6.9 4.9-10.6h-1.3c-3.2-.3-6.6-2.6-6-6.3.4-2.8 3.2-3.9 5.7-3.3 3.6.9 4.5 4.3 4.2 7.6 2.2-.7 4.2-2.5 5.7-4.1 5.3-5.6 9.3-14.1 11-21.9zm-67.6 2.5c1 1.4 3.3 2.2 3.8-.5.4-2.5-2.3-5.1-3.2-5.6-.7.8-2.6 3.5-.6 6.1zm21.2 3.6c.2 5.5 2.6 9.1 5.6 13.1 3-4 5.4-7.6 5.6-13.1.2-6.5-2-11.6-5.5-17.4v-.1.1c-3.7 5.8-5.9 10.9-5.7 17.4zm28.6-4.1c.4 2.7 2.7 1.9 3.8.5 2-2.6.1-5.3-.6-6.1-.9.5-3.6 3.1-3.2 5.6zm18.6-7.3c-4.7-4-12.2-6.9-19.4-8.9-7.8-2.2-15-3.3-22.3-4.1-7.3.8-14.5 1.9-22.3 4.1-7.1 2-14.7 4.9-19.4 8.9 0 .5.1 1 .1 1.5.1.7.2 1.3.3 2 3.5-3 9.6-5.2 14.2-4l.2-.2c6.4-5.8 18.6-7 26.7-6.8h.2c8.1-.2 20.4 1 26.7 6.8l.2.2c4.7-1.1 10.7 1 14.2 4 .1-.7.2-1.3.3-2 .2-.6.3-1 .3-1.5zm.2-2.6c.1-3.7-.5-7.5-3.3-10-5-4.6-13.8-5.3-17.2 1.2 7 1.6 15.5 4.8 20.5 8.8z"/></g></g></symbol><symbol id="door" viewBox="0 0 512 512"><path d="M485.4 493.933h-51.2V7.533c0-5.12-3.413-8.533-8.533-8.533H84.333C79.213-1 75.8 2.413 75.8 7.533v486.4H24.6c-5.12 0-8.533 3.413-8.533 8.533S19.48 511 24.6 511H485.4c5.12 0 8.533-3.413 8.533-8.533s-3.413-8.534-8.533-8.534zm-358.4 0V50.2h256v443.733H127zm273.067 0V41.667c0-5.12-3.413-8.533-8.533-8.533H118.467c-5.12 0-8.533 3.413-8.533 8.533v452.267H92.867V16.067h324.267v477.867h-17.067z"/><path d="M357.4 246.467h-34.133c-5.12 0-8.533 3.413-8.533 8.533v8.533h-17.067c-5.12 0-8.533 3.413-8.533 8.533 0 5.12 3.413 8.533 8.533 8.533h17.067v8.533c0 5.12 3.413 8.533 8.533 8.533H357.4c5.12 0 8.533-3.413 8.533-8.533V255c0-5.12-3.413-8.533-8.533-8.533zm-8.533 34.133H331.8v-17.067h17.067V280.6z"/></symbol><symbol id="down-arrow" viewBox="0 0 314.5 314.5"><path d="M314.5 90.5c0 6-2 13-7 18l-133 133c-5 5-10 7-17 7s-12-2-17-7l-133-133c-10-10-10-25 0-35s24-10 34 0l116 116 116-116c10-10 24-10 34 0 5 5 7 11 7 17z"/></symbol><symbol id="left-arrow" viewBox="0 0 477.175 477.175"><path d="M145.188 238.575l215.5-215.5c5.3-5.3 5.3-13.8 0-19.1s-13.8-5.3-19.1 0l-225.1 225.1c-5.3 5.3-5.3 13.8 0 19.1l225.1 225c2.6 2.6 6.1 4 9.5 4s6.9-1.3 9.5-4c5.3-5.3 5.3-13.8 0-19.1l-215.4-215.5z"/></symbol><symbol id="menu" viewBox="0 0 75 75"><path d="M57.5 21h-38a2 2 0 0 0 0 4h38a2 2 0 0 0 0-4zM57.5 36h-38a2 2 0 0 0 0 4h38a2 2 0 0 0 0-4zM57.5 51h-38a2 2 0 0 0 0 4h38a2 2 0 0 0 0-4z"/><path d="M75 14c0-5.523-4.478-10-10-10H10C4.477 4 0 8.477 0 14v47c0 5.522 4.477 10 10 10h55c5.522 0 10-4.478 10-10V14zm-4 47a6 6 0 0 1-6 6H10a6 6 0 0 1-6-6V14a6 6 0 0 1 6-6h55a6 6 0 0 1 6 6v47z"/></symbol><symbol id="payment" viewBox="0 0 276 276"><path class="st0" d="M138 276C61.9 276 0 214.1 0 138S61.9 0 138 0s138 61.9 138 138-61.9 138-138 138zm0-270C65.2 6 6 65.2 6 138s59.2 132 132 132 132-59.2 132-132S210.8 6 138 6z"/><path class="st0" d="M180.7 154.2V80.9c0-5-4.1-9.2-9.2-9.2h-122c-5 0-9.2 4.1-9.2 9.2v73.2c0 5 4.1 9.2 9.2 9.2h122c5.1 0 9.2-4.1 9.2-9.1zm-134.2 0V80.9c0-1.7 1.4-3 3-3h122c1.7 0 3.1 1.4 3.1 3v73.2c0 1.7-1.4 3-3.1 3h-122c-1.6.1-3-1.3-3-2.9zm0 0"/><path class="st0" d="M226.5 114.5h-36.6c-1.7 0-3.1 1.4-3.1 3 0 1.7 1.4 3 3.1 3h36.6c1.7 0 3.1 1.4 3.1 3.1v15.3h-39.7c-1.7 0-3.1 1.4-3.1 3 0 1.7 1.4 3.1 3.1 3.1h39.7v51.9c0 1.7-1.4 3.1-3.1 3.1h-122c-1.7 0-3-1.4-3-3.1v-24.4c0-1.7-1.4-3-3-3-1.7 0-3.1 1.4-3.1 3v24.4c0 5 4.1 9.2 9.2 9.2h122c5 0 9.2-4.1 9.2-9.2v-73.2c-.2-5.1-4.3-9.2-9.3-9.2zm0 0M104.4 135.9H89.2c-1.7 0-3 1.4-3 3.1s1.4 3 3 3h15.3c1.7 0 3.1-1.4 3.1-3s-1.5-3.1-3.2-3.1zm0 0M77 135.9H61.7c-1.7 0-3.1 1.4-3.1 3.1s1.4 3 3.1 3H77c1.7 0 3-1.4 3-3s-1.3-3.1-3-3.1zm0 0"/><path class="st0" d="M159.4 135.9h-15.3c-1.7 0-3.1 1.4-3.1 3.1s1.4 3 3.1 3h15.3c1.7 0 3-1.4 3-3s-1.4-3.1-3-3.1zm0 0M131.9 135.9h-15.3c-1.7 0-3 1.4-3 3.1s1.4 3 3 3h15.3c1.7 0 3-1.4 3-3s-1.3-3.1-3-3.1zm0 0M73.9 87h-9.2c-5 0-9.2 4.1-9.2 9.2v3.1c0 5 4.1 9.2 9.2 9.2h9.2c5 0 9.2-4.1 9.2-9.2v-3.1c0-5-4.1-9.2-9.2-9.2zM77 99.3c0 1.7-1.4 3-3.1 3h-9.2c-1.7 0-3-1.4-3-3v-3.1c0-1.7 1.4-3 3-3h9.2c1.7 0 3.1 1.4 3.1 3v3.1zm0 0M153.3 87c-3.6 0-6.9 1.6-9.2 4.1-2.2-2.5-5.5-4.1-9.2-4.1-6.7 0-12.2 5.5-12.2 12.2 0 6.7 5.5 12.2 12.2 12.2 3.6 0 6.9-1.6 9.2-4.1 2.2 2.5 5.5 4.1 9.2 4.1 6.7 0 12.2-5.5 12.2-12.2 0-6.7-5.5-12.2-12.2-12.2zm-18.4 18.4c-3.4 0-6.1-2.7-6.1-6.1 0-3.4 2.7-6.1 6.1-6.1 3.4 0 6.1 2.7 6.1 6.1 0 3.3-2.7 6.1-6.1 6.1zm18.4 0c-3.4 0-6.1-2.7-6.1-6.1 0-3.4 2.7-6.1 6.1-6.1 3.4 0 6.1 2.7 6.1 6.1 0 3.3-2.8 6.1-6.1 6.1zm0 0M189.9 132.8h33.6c1.7 0 3-1.4 3-3 0-1.7-1.4-3.1-3-3.1h-33.6c-1.7 0-3.1 1.4-3.1 3.1 0 1.6 1.4 3 3.1 3zm0 0M214.3 169.4h-58c-1.7 0-3 1.4-3 3 0 1.7 1.4 3.1 3 3.1h58c1.7 0 3-1.4 3-3.1 0-1.6-1.4-3-3-3zm0 0M214.3 181.6h-36.6c-1.7 0-3 1.4-3 3.1 0 1.7 1.4 3 3 3h36.6c1.7 0 3-1.4 3-3 0-1.7-1.4-3.1-3-3.1zm0 0"/></symbol><symbol id="play-button" viewBox="0 0 476.737 476.737"><g fill="#010002"><path d="M238.369 0C106.726 0 0 106.726 0 238.369c0 131.675 106.726 238.369 238.369 238.369 131.675 0 238.369-106.694 238.369-238.369C476.737 106.726 370.043 0 238.369 0zm0 444.955c-113.908 0-206.586-92.678-206.586-206.586S124.46 31.782 238.369 31.782s206.586 92.678 206.586 206.586-92.678 206.587-206.586 206.587z"/><path d="M343.759 227.976L221.206 130.88c-6.897-5.403-18.084-5.403-24.981 0l-.159.159c-3.305 2.511-5.371 6.007-5.371 9.916v194.191c0 3.973 2.193 7.501 5.594 9.98l-.064.064c6.897 5.435 18.084 5.435 24.981 0l123.221-97.318c6.929-5.403 6.929-14.207 0-19.61l-.668-.286z"/></g></symbol><symbol id="right-arrow" viewBox="0 0 477.175 477.175"><path d="M360.731 229.075l-225.1-225.1c-5.3-5.3-13.8-5.3-19.1 0s-5.3 13.8 0 19.1l215.5 215.5-215.5 215.5c-5.3 5.3-5.3 13.8 0 19.1 2.6 2.6 6.1 4 9.5 4 3.4 0 6.9-1.3 9.5-4l225.1-225.1c5.3-5.2 5.3-13.8.1-19z"/></symbol><symbol id="round-clock" viewBox="0 0 276 276"><style>.st1{font-family:'TrebuchetMS'}.st2{font-size:72.0809px}</style><path class="st0" d="M138 276C61.9 276 0 214.1 0 138S61.9 0 138 0s138 61.9 138 138-61.9 138-138 138zm0-270C65.2 6 6 65.2 6 138s59.2 132 132 132 132-59.2 132-132S210.8 6 138 6z"/><path class="st0" d="M247.2 155.7c-2.5-.5-4.9 1.1-5.3 3.5-9.8 48.6-53 83.9-102.7 83.9-57.8 0-104.8-47-104.8-104.8s47-104.8 104.8-104.8c27.3 0 53.4 10.7 72.9 29.5h-11.7c-2.5 0-4.5 2-4.5 4.5s2 4.5 4.5 4.5H223c2.5 0 4.5-2 4.5-4.5V44.8c0-2.5-2-4.5-4.5-4.5s-4.5 2-4.5 4.5v11.9c-21.2-20.6-49.7-32.3-79.4-32.3-30.4 0-59 11.8-80.5 33.4-21.6 21.5-33.4 50.1-33.4 80.6s11.8 59 33.4 80.5c21.5 21.5 50.1 33.4 80.5 33.4 26.4 0 52.2-9.3 72.6-26.1 20.1-16.6 34-39.7 39.1-65.1.4-2.5-1.2-4.9-3.6-5.4z"/><path class="st0" d="M250.9 133.8c-2.5 0-4.5 2-4.5 4.5v3c-.1 2.5 1.9 4.6 4.4 4.7h.1c2.4 0 4.5-1.9 4.5-4.4v-3.3c0-2.5-2-4.5-4.5-4.5z"/><text transform="translate(59.964 161.936)" class="st0 st1 st2" font-size="72.081">24/7</text></symbol><symbol id="shipping" viewBox="0 0 276 276"><path class="st0" d="M138 276C61.9 276 0 214.1 0 138S61.9 0 138 0s138 61.9 138 138-61.9 138-138 138zm0-270C65.2 6 6 65.2 6 138s59.2 132 132 132 132-59.2 132-132S210.8 6 138 6z"/><path class="st0" d="M200 163.3c-4.8 0-9.3 1.9-12.7 5.2-3.4 3.4-5.3 7.9-5.3 12.6 0 4.8 1.9 9.2 5.3 12.6 3.5 3.4 7.9 5.2 12.7 5.2 9.8 0 17.7-8 17.7-17.9 0-9.7-7.9-17.7-17.7-17.7zm0 27.8c-5.5 0-10.1-4.5-10.1-9.9s4.6-9.9 10.1-9.9c5.4 0 9.8 4.5 9.8 9.9s-4.4 9.9-9.8 9.9zm0 0M204.6 103.7c-.7-.7-1.7-1-2.7-1h-20.4c-2.2 0-4 1.8-4 4v32.6c0 2.2 1.8 4 4 4h32.4c2.2 0 4-1.8 4-4v-21.8c0-1.1-.5-2.2-1.3-2.9l-12-10.9zm5.3 31.5h-24.4v-24.7h14.9l9.5 8.6v16.1zm0 0M102.9 163.3c-4.8 0-9.3 1.9-12.7 5.2-3.4 3.4-5.3 7.9-5.3 12.6 0 4.8 1.9 9.2 5.3 12.6 3.5 3.4 7.9 5.2 12.7 5.2 9.8 0 17.7-8 17.7-17.9.1-9.7-7.9-17.7-17.7-17.7zm0 27.8c-5.5 0-10.1-4.5-10.1-9.9s4.6-9.9 10.1-9.9c5.4 0 9.8 4.5 9.8 9.9s-4.4 9.9-9.8 9.9zm0 0M76.4 168.1h-8v-10.6c0-2.2-1.8-4-4-4s-4 1.8-4 4V172c0 2.2 1.8 4 4 4h12c2.2 0 4-1.8 4-4 0-2.1-1.8-3.9-4-3.9zm0 0M96.6 146.5c0-2.2-1.8-4-4-4H44.4c-2.2 0-4 1.8-4 4s1.8 4 4 4h48.2c2.2 0 4-1.8 4-4zm0 0M52.5 132.1l48.2.3c2.2 0 4-1.8 4-3.9 0-2.2-1.7-4-3.9-4l-48.2-.3c-2.2 0-4 1.7-4 3.9-.1 2.3 1.7 4 3.9 4zm0 0M60.6 114.1h48.2c2.2 0 4-1.8 4-4s-1.8-4-4-4H60.6c-2.2 0-4 1.8-4 4s1.8 4 4 4zm0 0"/><path class="st0" d="M234.1 108.7l-28.5-23.6c-.7-.6-1.6-.9-2.5-.9h-33.5V69.9c0-2.2-1.8-4-4-4H64.5c-2.2 0-4 1.8-4 4V99c0 2.2 1.8 4 4 4s4-1.8 4-4V73.9h93.3v94.2h-32.6c-2.2 0-4 1.8-4 4s1.8 4 4 4h48.5c2.2 0 4-1.8 4-4s-1.8-4-4-4h-8V92.2h32l25.9 21.5-.3 54.4h-4.1c-2.2 0-4 1.8-4 4s1.8 4 4 4h8.1c2.2 0 4-1.7 4-3.9l.3-60.3c-.1-1.3-.6-2.4-1.5-3.2zm0 0"/></symbol><symbol id="shoping-cart" viewBox="0 0 287.755 287.755"><path d="M134.16 279.13c-15.24 0-26.715-12.31-26.715-27.544 0-15.162 11.475-26.638 26.715-26.638 15.162 0 27.472 11.476 27.472 26.638-.006 15.235-12.316 27.544-27.472 27.544zM265.515 176.575c-1.682 7.085-2.275 19.503-6.762 25.244-2.708 3.465-6.773 5.626-11.943 5.626H92.21c-9.962 0-18.056-8.022-18.056-18.003 0-6.461-18.507-98.199-25.497-132.633-1.453-7.146-8.551-12.995-15.834-13.061l-14.711-.141C-1.674 43.607.037 24.833.037 24.833c.384-6.626 2.642-10.581 5.434-12.911 5.597-4.668 18.231-3.008 25.347-3.02l12.874-.024c22.146 0 30.883 12.661 34.317 22.929 2.312 6.917 3.495 18.735 5.05 25.857l22.104 100.829c1.561 7.122 8.737 12.893 16.021 12.893H222.31c7.29 0 14.412-5.771 15.907-12.91l16.507-78.486c2.132-9.217 5.566-13.627 9.086-15.501 6.425-3.444 19.882 1.63 22.416 8.455 3.759 10.157-.595 27.37-.595 27.37s-12.94 46.17-20.116 76.261zM224.382 279.13c-15.18 0-26.649-12.31-26.649-27.544 0-15.162 11.47-26.638 26.649-26.638 15.162 0 27.525 11.476 27.525 26.638.001 15.235-12.363 27.544-27.525 27.544z"/><path d="M135.085 153.335c-4.984 0-9.025-4.053-9.025-9.043 0-4.978 4.042-9.031 9.025-9.031 4.996 0 9.031 4.053 9.031 9.031 0 4.991-4.029 9.043-9.031 9.043zM171.209 153.335c-4.983 0-9.024-4.053-9.024-9.043 0-4.978 4.041-9.031 9.024-9.031 4.979 0 9.031 4.053 9.031 9.031.001 4.991-4.052 9.043-9.031 9.043zM207.323 153.335c-4.99 0-9.031-4.053-9.031-9.043 0-4.978 4.041-9.031 9.031-9.031 4.978 0 9.025 4.053 9.025 9.031 0 4.991-4.048 9.043-9.025 9.043zM117.022 117.21c-4.972 0-9.037-4.035-9.037-9.021 0-4.981 4.065-9.035 9.037-9.035a9.035 9.035 0 0 1 9.043 9.035c-.005 4.986-4.041 9.021-9.043 9.021zM153.147 99.161c4.984 0 9.025 4.044 9.025 9.028 0 4.986-4.041 9.028-9.025 9.028a9.029 9.029 0 1 1 0-18.056zM189.266 99.161c4.984 0 9.025 4.044 9.025 9.028 0 4.986-4.041 9.028-9.025 9.028a9.028 9.028 0 1 1 0-18.056zM225.379 99.161c4.983 0 9.024 4.044 9.024 9.028 0 4.986-4.041 9.028-9.024 9.028a9.028 9.028 0 1 1 0-18.056zM207.323 81.104c-4.99 0-9.031-4.053-9.031-9.022a9.026 9.026 0 0 1 9.031-9.031 9.025 9.025 0 0 1 9.025 9.031c0 4.969-4.048 9.022-9.025 9.022zM171.209 81.104c-4.983 0-9.024-4.053-9.024-9.022 0-4.993 4.041-9.031 9.024-9.031 4.979 0 9.031 4.032 9.031 9.031.001 4.969-4.052 9.022-9.031 9.022zM135.085 81.104c-4.984 0-9.025-4.053-9.025-9.022 0-4.993 4.042-9.031 9.025-9.031a9.018 9.018 0 0 1 9.031 9.031c0 4.969-4.029 9.022-9.031 9.022z"/></symbol></svg>